<svg xmlns="http://www.w3.org/2000/svg" viewBox="0 0 30 30">
  <path fill="#0c0f13" d="M14.3,26.6c-1.8-2-2.2-3.4-1.5-5.2c0.9-2.3,6.8-8.1,10.4-10.4l3.1-2c3,0.1,3.1,0.2,3.4,1.1c0.2,0.8,0.3,1.9,0.3,4.4c0.1,2.9-0.1,3.5-1.1,4.7l-1.4,1.5L17.2,24.1c-1.5,0.1-3.5,0.6-4.3,0.8C12.1,25.4,11,25.5,10.8,25C9.9,23.6,10,21.1,12.2,16.7l2.3-3.3l2.4,0.6c3.1,0.8,10,1.3,17.8,1.3l5.9,0L31.1,8.5c-6.5-6.3-14.9-12-25-17.1C4.9-9,0.4-8.4,0-7.4C-1.5-5.5-0.9-2.9,4.8,1.4c5.4,4.7,10.4,10.8,15,18c2.4,4.4,2.2,5.1-2.3,7.6C22.8,28.4,19,29.6,17.7,29.6c-1.3,0-2.7-0.6-3.4-1.3z" />
</svg>