<svg width="498" height="365" viewBox="0 0 498 365" fill="none" xmlns="http://www.w3.org/2000/svg">
<path d="M1.06654 358.281C-0.435311 359.901 -0.339445 362.432 1.28066 363.933C2.90077 365.435 5.43161 365.339 6.93346 363.719L1.06654 358.281ZM255.97 237.12C244.651 258.371 223.079 266.451 199.074 269.023C187.114 270.304 174.781 270.188 163.187 269.737C151.746 269.293 140.717 268.5 132 268.5V276.5C140.533 276.5 151.004 277.27 162.876 277.731C174.594 278.187 187.386 278.321 199.926 276.977C224.921 274.299 249.849 265.629 263.03 240.88L255.97 237.12ZM132 268.5C82.8148 268.5 64.8732 273.364 51.8196 288.445C45.6881 295.528 40.5887 304.994 33.5448 316.136C26.3672 327.49 16.7366 341.377 1.06654 358.281L6.93346 363.719C23.0134 346.373 32.935 332.072 40.3069 320.411C47.8126 308.538 52.2601 300.159 57.8683 293.68C68.294 281.636 82.6024 276.5 132 276.5V268.5Z" fill="black"/>
<path d="M258.5 241C282.5 195 272.419 175.249 242 184C205.5 194.5 168 191.5 194.5 238" stroke="black" stroke-width="8"/>
<path d="M291.5 137.5C317 94.5 380.88 104 361.5 149.5C346.936 183.693 227.5 290.5 193.5 236.5" stroke="black" stroke-width="8"/>
<path d="M494 4C414 43 471 135 384.5 174C352.357 188.492 276 162 292 136.5" stroke="black" stroke-width="8" stroke-linecap="round"/>
</svg>
